<svg width="150" height="24" viewBox="0 0 150 24" fill="none" xmlns="http://www.w3.org/2000/svg">
<path d="M17.6471 12V13.3333H1.35747V2.66667H10.181V1.33334H1.35747C0.997446 1.33334 0.652167 1.47381 0.397592 1.72386C0.143019 1.97391 0 2.31305 0 2.66667V13.3333C0 13.6869 0.143019 14.0261 0.397592 14.2761C0.652167 14.5262 0.997446 14.6667 1.35747 14.6667H6.78733V17.3333H4.0724V18.6667H14.9321V17.3333H12.2172V14.6667H17.6471C18.0071 14.6667 18.3523 14.5262 18.6069 14.2761C18.8615 14.0261 19.0045 13.6869 19.0045 13.3333V12H17.6471ZM10.8597 17.3333H8.1448V14.6667H10.8597V17.3333Z" fill="#FFBC82"/>
<path d="M14.4977 11.4933V10.3467C13.81 10.2933 13.2307 10.1289 12.7602 9.85333C12.2896 9.5778 11.8824 9.24 11.5385 8.84L12.5294 7.96C12.8099 8.2978 13.1131 8.56887 13.4389 8.77333C13.7737 8.9778 14.1584 9.10667 14.5928 9.16V6.17333C13.6154 5.96889 12.9095 5.66222 12.4751 5.25333C12.0407 4.83555 11.8235 4.28889 11.8235 3.61333C11.8235 2.90222 12.0633 2.33778 12.543 1.92C13.0226 1.50222 13.6742 1.24889 14.4977 1.16V0H15.6516V1.16C16.2307 1.21333 16.733 1.35555 17.1584 1.58667C17.5928 1.81778 17.9683 2.13333 18.2851 2.53333L17.2805 3.34667C17.0815 3.08889 16.8416 2.87555 16.5611 2.70667C16.2896 2.52889 15.9592 2.40889 15.5701 2.34667V5.08C16.1041 5.19555 16.5475 5.33333 16.9004 5.49333C17.2534 5.65333 17.5385 5.83555 17.7556 6.04C17.9819 6.23555 18.1448 6.46667 18.2443 6.73333C18.3439 6.99113 18.3937 7.29333 18.3937 7.64C18.3937 8.36 18.1539 8.96 17.6742 9.44C17.2036 9.92 16.5294 10.2133 15.6516 10.32V11.4933H14.4977ZM16.9683 7.73333C16.9683 7.39553 16.8687 7.12 16.6697 6.90667C16.4706 6.68447 16.1041 6.50667 15.5701 6.37333V9.14667C16.0135 9.07553 16.3575 8.91553 16.6018 8.66667C16.8461 8.4178 16.9683 8.10667 16.9683 7.73333ZM13.2353 3.54667C13.2353 3.92 13.3439 4.20445 13.5611 4.4C13.7873 4.58667 14.1312 4.74222 14.5928 4.86667V2.33333C14.1584 2.39555 13.8235 2.52889 13.5882 2.73333C13.3529 2.93778 13.2353 3.20889 13.2353 3.54667Z" fill="#FFBC82"/>
<path d="M25.8571 18.6667V1.91467H36.5104V4.31467H28.6181V8.97067H35.6308V11.3707H28.6181V18.6667H25.8571ZM39.4747 3.95467C38.9208 3.95467 38.5136 3.82667 38.253 3.57067C38.0086 3.31467 37.8864 2.98667 37.8864 2.58667V2.17867C37.8864 1.77867 38.0086 1.45067 38.253 1.19467C38.5136 0.938669 38.9208 0.810669 39.4747 0.810669C40.0285 0.810669 40.4276 0.938669 40.672 1.19467C40.9163 1.45067 41.0385 1.77867 41.0385 2.17867V2.58667C41.0385 2.98667 40.9163 3.31467 40.672 3.57067C40.4276 3.82667 40.0285 3.95467 39.4747 3.95467ZM38.1308 6.18667H40.7941V18.6667H38.1308V6.18667ZM43.1312 18.6667V6.18667H45.7946V8.25067H45.9167C46.1937 7.57867 46.609 7.01867 47.1629 6.57067C47.733 6.12267 48.5068 5.89867 49.4842 5.89867C50.7873 5.89867 51.7973 6.32267 52.514 7.17067C53.2471 8.00267 53.6136 9.19467 53.6136 10.7467V18.6667H50.9502V11.0827C50.9502 9.13067 50.152 8.15467 48.5557 8.15467C48.2136 8.15467 47.8715 8.20267 47.5294 8.29867C47.2036 8.37867 46.9104 8.50667 46.6498 8.68267C46.3891 8.85867 46.1774 9.08267 46.0145 9.35467C45.8679 9.62667 45.7946 9.94667 45.7946 10.3147V18.6667H43.1312ZM65.1485 18.6667C64.4481 18.6667 63.9105 18.4747 63.5358 18.0907C63.1612 17.6907 62.9331 17.1867 62.8517 16.5787H62.7295C62.4852 17.3627 62.0372 17.9547 61.3856 18.3547C60.734 18.7547 59.944 18.9547 59.0155 18.9547C57.696 18.9547 56.6779 18.6187 55.9612 17.9467C55.2607 17.2747 54.9105 16.3707 54.9105 15.2347C54.9105 13.9867 55.3666 13.0507 56.2788 12.4267C57.2073 11.8027 58.5594 11.4907 60.3349 11.4907H62.6318V10.4347C62.6318 9.66667 62.42 9.07467 61.9965 8.65867C61.5729 8.24267 60.9132 8.03467 60.0173 8.03467C59.268 8.03467 58.6571 8.19467 58.1847 8.51467C57.7123 8.83467 57.3132 9.24267 56.9874 9.73867L55.3992 8.32267C55.8227 7.61867 56.4173 7.04267 57.1829 6.59467C57.9485 6.13067 58.9503 5.89867 60.1883 5.89867C61.8336 5.89867 63.096 6.27467 63.9757 7.02667C64.8553 7.77867 65.2951 8.85867 65.2951 10.2667V16.5307H66.639V18.6667H65.1485ZM59.7729 16.9627C60.6037 16.9627 61.2879 16.7867 61.8254 16.4347C62.363 16.0667 62.6318 15.5787 62.6318 14.9707V13.1707H60.3838C58.5431 13.1707 57.6227 13.7307 57.6227 14.8507V15.2827C57.6227 15.8427 57.81 16.2667 58.1847 16.5547C58.5757 16.8267 59.1051 16.9627 59.7729 16.9627ZM67.7832 18.6667V6.18667H70.4464V8.25067H70.5686C70.8455 7.57867 71.2609 7.01867 71.8147 6.57067C72.3849 6.12267 73.1586 5.89867 74.136 5.89867C75.4392 5.89867 76.4491 6.32267 77.1659 7.17067C77.8989 8.00267 78.2654 9.19467 78.2654 10.7467V18.6667H75.6021V11.0827C75.6021 9.13067 74.8039 8.15467 73.2075 8.15467C72.8654 8.15467 72.5233 8.20267 72.1813 8.29867C71.8555 8.37867 71.5623 8.50667 71.3016 8.68267C71.041 8.85867 70.8292 9.08267 70.6663 9.35467C70.5197 9.62667 70.4464 9.94667 70.4464 10.3147V18.6667H67.7832ZM85.4023 5.89867C86.6729 5.89867 87.7154 6.17867 88.5299 6.73867C89.3444 7.29867 89.939 8.04267 90.3136 8.97067L88.1145 9.97867C87.9353 9.40267 87.6177 8.94667 87.1616 8.61067C86.7218 8.25867 86.1353 8.08267 85.4023 8.08267C84.4249 8.08267 83.6838 8.38667 83.1788 8.99467C82.6901 9.58667 82.4457 10.3627 82.4457 11.3227V13.5547C82.4457 14.5147 82.6901 15.2987 83.1788 15.9067C83.6838 16.4987 84.4249 16.7947 85.4023 16.7947C86.1842 16.7947 86.8032 16.6107 87.2593 16.2427C87.7317 15.8587 88.1064 15.3547 88.3833 14.7307L90.4114 15.7867C90.0204 16.7467 89.434 17.4987 88.6521 18.0427C87.8865 18.5707 86.9417 18.8747 85.8177 18.9547L85.5978 20.0587L85.6711 20.1547C85.8503 20.1067 86.0213 20.0667 86.1842 20.0347C86.3634 20.0027 86.5426 19.9867 86.7218 19.9867C87.1942 19.9867 87.5933 20.1147 87.919 20.3707C88.2611 20.6427 88.4322 21.0587 88.4322 21.6187C88.4322 21.9867 88.3507 22.2987 88.1878 22.5547C88.0249 22.8107 87.805 23.0187 87.5281 23.1787C87.2675 23.3547 86.958 23.4827 86.5996 23.5627C86.2575 23.6427 85.891 23.6827 85.5 23.6827C84.767 23.6827 84.1806 23.5707 83.7408 23.3467C83.3172 23.1227 83.0077 22.8987 82.8123 22.6747L83.8385 21.5227C83.9851 21.7147 84.1806 21.8747 84.4249 22.0027C84.6856 22.1467 85.0032 22.2187 85.3779 22.2187C85.6874 22.2187 85.9399 22.1627 86.1353 22.0507C86.3471 21.9387 86.453 21.7627 86.453 21.5227C86.453 21.3307 86.339 21.1387 86.1109 20.9467C85.8829 20.7707 85.4186 20.6427 84.7181 20.5627L84.1073 20.4907L84.4249 18.8827C82.8937 18.6747 81.7127 18.0027 80.8819 16.8667C80.0512 15.7307 79.6358 14.2507 79.6358 12.4267C79.6358 11.4347 79.7661 10.5387 80.0267 9.73867C80.2874 8.92267 80.662 8.23467 81.1507 7.67467C81.6394 7.09867 82.2421 6.65867 82.9589 6.35467C83.6756 6.05067 84.4901 5.89867 85.4023 5.89867ZM100.791 18.6667C100.09 18.6667 99.5525 18.4747 99.1779 18.0907C98.8032 17.6907 98.5752 17.1867 98.4937 16.5787H98.3715C98.1272 17.3627 97.6792 17.9547 97.0276 18.3547C96.3761 18.7547 95.586 18.9547 94.6575 18.9547C93.3381 18.9547 92.32 18.6187 91.6032 17.9467C90.9028 17.2747 90.5525 16.3707 90.5525 15.2347C90.5525 13.9867 91.0086 13.0507 91.9209 12.4267C92.8494 11.8027 94.2014 11.4907 95.977 11.4907H98.2738V10.4347C98.2738 9.66667 98.062 9.07467 97.6385 8.65867C97.215 8.24267 96.5553 8.03467 95.6593 8.03467C94.91 8.03467 94.2991 8.19467 93.8267 8.51467C93.3543 8.83467 92.9552 9.24267 92.6295 9.73867L91.0412 8.32267C91.4648 7.61867 92.0593 7.04267 92.8249 6.59467C93.5905 6.13067 94.5924 5.89867 95.8304 5.89867C97.4756 5.89867 98.7381 6.27467 99.6177 7.02667C100.497 7.77867 100.937 8.85867 100.937 10.2667V16.5307H102.281V18.6667H100.791ZM95.415 16.9627C96.2458 16.9627 96.9299 16.7867 97.4675 16.4347C98.005 16.0667 98.2738 15.5787 98.2738 14.9707V13.1707H96.0258C94.1851 13.1707 93.2648 13.7307 93.2648 14.8507V15.2827C93.2648 15.8427 93.4521 16.2667 93.8267 16.5547C94.2177 16.8267 94.7471 16.9627 95.415 16.9627ZM107.456 18.9547C106.251 18.9547 105.241 18.7467 104.427 18.3307C103.612 17.9147 102.903 17.3387 102.301 16.6027L104.011 15.0667C104.484 15.6267 105.005 16.0667 105.575 16.3867C106.161 16.6907 106.837 16.8427 107.603 16.8427C108.385 16.8427 108.963 16.6987 109.338 16.4107C109.729 16.1067 109.924 15.6907 109.924 15.1627C109.924 14.7627 109.786 14.4267 109.509 14.1547C109.248 13.8667 108.784 13.6827 108.116 13.6027L106.943 13.4587C105.64 13.2987 104.614 12.9307 103.865 12.3547C103.131 11.7627 102.765 10.8907 102.765 9.73867C102.765 9.13067 102.879 8.59467 103.107 8.13067C103.335 7.65067 103.653 7.25067 104.06 6.93067C104.484 6.59467 104.98 6.33867 105.55 6.16267C106.137 5.98667 106.78 5.89867 107.481 5.89867C108.621 5.89867 109.55 6.07467 110.266 6.42667C110.999 6.77867 111.651 7.26667 112.221 7.89067L110.584 9.42667C110.258 9.04267 109.827 8.71467 109.289 8.44267C108.768 8.15467 108.165 8.01067 107.481 8.01067C106.748 8.01067 106.202 8.15467 105.844 8.44267C105.502 8.73067 105.331 9.10667 105.331 9.57067C105.331 10.0507 105.485 10.4107 105.795 10.6507C106.104 10.8907 106.601 11.0667 107.285 11.1787L108.458 11.3227C109.859 11.5307 110.877 11.9387 111.512 12.5467C112.164 13.1387 112.49 13.9387 112.49 14.9467C112.49 15.5547 112.368 16.1067 112.123 16.6027C111.895 17.0827 111.561 17.4987 111.122 17.8507C110.682 18.2027 110.152 18.4747 109.533 18.6667C108.914 18.8587 108.222 18.9547 107.456 18.9547ZM130.974 16.1227H130.876C130.697 16.9387 130.208 17.6187 129.41 18.1627C128.628 18.6907 127.586 18.9547 126.282 18.9547C125.272 18.9547 124.336 18.7707 123.472 18.4027C122.609 18.0187 121.86 17.4667 121.224 16.7467C120.605 16.0107 120.117 15.1067 119.758 14.0347C119.416 12.9467 119.245 11.6987 119.245 10.2907C119.245 8.89867 119.424 7.66667 119.783 6.59467C120.141 5.50667 120.646 4.59467 121.298 3.85867C121.949 3.12267 122.731 2.57067 123.643 2.20267C124.556 1.81867 125.574 1.62667 126.698 1.62667C128.229 1.62667 129.524 1.96267 130.583 2.63467C131.642 3.29067 132.464 4.21067 133.051 5.39467L130.803 6.69067C130.477 5.90667 129.972 5.27467 129.288 4.79467C128.604 4.29867 127.74 4.05067 126.698 4.05067C125.346 4.05067 124.254 4.47467 123.424 5.32267C122.609 6.17067 122.202 7.37067 122.202 8.92267V11.6587C122.202 13.2107 122.609 14.4107 123.424 15.2587C124.254 16.1067 125.346 16.5307 126.698 16.5307C127.235 16.5307 127.748 16.4667 128.237 16.3387C128.726 16.1947 129.149 15.9947 129.508 15.7387C129.882 15.4667 130.176 15.1387 130.387 14.7547C130.615 14.3547 130.729 13.8907 130.729 13.3627V12.0667H127.211V9.73867H133.393V18.6667H130.974V16.1227ZM135.765 1.91467H143.315C144.732 1.91467 145.84 2.30667 146.638 3.09067C147.453 3.87467 147.86 4.92267 147.86 6.23467C147.86 6.85867 147.77 7.39467 147.591 7.84267C147.412 8.27467 147.184 8.63467 146.907 8.92267C146.63 9.19467 146.312 9.40267 145.954 9.54667C145.596 9.67467 145.246 9.75467 144.903 9.78667V9.93067C145.246 9.94667 145.62 10.0267 146.027 10.1707C146.451 10.3147 146.842 10.5467 147.2 10.8667C147.559 11.1707 147.86 11.5707 148.104 12.0667C148.349 12.5467 148.471 13.1387 148.471 13.8427C148.471 14.5147 148.357 15.1467 148.129 15.7387C147.917 16.3307 147.616 16.8427 147.225 17.2747C146.834 17.7067 146.369 18.0507 145.832 18.3067C145.294 18.5467 144.708 18.6667 144.073 18.6667H135.765V1.91467ZM138.526 16.3387H143.266C143.983 16.3387 144.545 16.1547 144.952 15.7867C145.36 15.4187 145.563 14.8907 145.563 14.2027V13.3867C145.563 12.6987 145.36 12.1707 144.952 11.8027C144.545 11.4347 143.983 11.2507 143.266 11.2507H138.526V16.3387ZM138.526 8.99467H142.802C143.486 8.99467 144.016 8.82667 144.39 8.49067C144.765 8.13867 144.952 7.64267 144.952 7.00267V6.23467C144.952 5.59467 144.765 5.10667 144.39 4.77067C144.016 4.41867 143.486 4.24267 142.802 4.24267H138.526V8.99467Z" fill="white"/>
</svg>
