<svg width="264" height="43" viewBox="0 0 264 43" fill="none" xmlns="http://www.w3.org/2000/svg">
<path d="M31.0588 21.5023V23.8914H2.38914V4.7783H17.9186V2.38916H2.38914C1.7555 2.38916 1.14781 2.64087 0.699762 3.08893C0.251713 3.53697 0 4.14466 0 4.7783V23.8914C0 24.525 0.251713 25.1327 0.699762 25.5808C1.14781 26.0289 1.7555 26.2806 2.38914 26.2806H11.9457V31.0588H7.16742V33.448H26.2805V31.0588H21.5023V26.2806H31.0588C31.6924 26.2806 32.3001 26.0289 32.7482 25.5808C33.1963 25.1327 33.448 24.525 33.448 23.8914V21.5023H31.0588ZM19.1131 31.0588H14.3348V26.2806H19.1131V31.0588Z" fill="#264FEC"/>
<path d="M25.5159 20.5944V18.5397C24.3055 18.4442 23.286 18.1495 22.4578 17.6557C21.6296 17.162 20.9129 16.5567 20.3076 15.84L22.0517 14.2632C22.5454 14.8685 23.079 15.3542 23.6524 15.7205C24.2417 16.0869 24.9187 16.3178 25.6832 16.4134V11.0617C23.963 10.6954 22.7206 10.1459 21.9561 9.41321C21.1916 8.66461 20.8093 7.68506 20.8093 6.47457C20.8093 5.20036 21.2314 4.18896 22.0756 3.44036C22.9198 2.69176 24.0666 2.23782 25.5159 2.07855V0H27.5467V2.07855C28.566 2.17412 29.45 2.42896 30.1987 2.84308C30.9632 3.2572 31.6241 3.82262 32.1816 4.53937L30.4137 5.99674C30.0633 5.53484 29.6412 5.15258 29.1474 4.84996C28.6696 4.5314 28.0882 4.31638 27.4034 4.20489V9.10262C28.3431 9.30968 29.1235 9.55656 29.7447 9.84326C30.3659 10.13 30.8676 10.4565 31.2499 10.8228C31.648 11.1732 31.9347 11.5873 32.11 12.0652C32.2852 12.5271 32.3728 13.0686 32.3728 13.6898C32.3728 14.9799 31.9507 16.055 31.1065 16.9151C30.2783 17.7752 29.0916 18.3008 27.5467 18.4919V20.5944H25.5159ZM29.8642 13.857C29.8642 13.2517 29.6889 12.758 29.3386 12.3757C28.9882 11.9776 28.3431 11.659 27.4034 11.4201V16.3895C28.1838 16.262 28.7891 15.9753 29.2191 15.5294C29.6492 15.0835 29.8642 14.526 29.8642 13.857ZM23.294 6.35511C23.294 7.02407 23.4852 7.53376 23.8674 7.88416C24.2656 8.21864 24.8709 8.49737 25.6832 8.72036V4.181C24.9187 4.29248 24.3294 4.5314 23.9152 4.89774C23.5011 5.26408 23.294 5.74986 23.294 6.35511Z" fill="#264FEC"/>
<path d="M45.5083 33.4478V3.4306H64.2583V7.73105H50.3678V16.0739H62.7101V20.3744H50.3678V33.4478H45.5083ZM69.4753 7.08599C68.5006 7.08599 67.7838 6.85663 67.3251 6.39791C66.895 5.9392 66.68 5.35147 66.68 4.63473V3.90365C66.68 3.18691 66.895 2.59918 67.3251 2.14047C67.7838 1.68175 68.5006 1.45239 69.4753 1.45239C70.4501 1.45239 71.1525 1.68175 71.5825 2.14047C72.0126 2.59918 72.2276 3.18691 72.2276 3.90365V4.63473C72.2276 5.35147 72.0126 5.9392 71.5825 6.39791C71.1525 6.85663 70.4501 7.08599 69.4753 7.08599ZM67.1101 11.0854H71.7976V33.4478H67.1101V11.0854ZM75.9108 33.4478V11.0854H80.5983V14.7838H80.8133C81.3007 13.5797 82.0318 12.5762 83.0066 11.7735C84.01 10.9707 85.3718 10.5694 87.092 10.5694C89.3856 10.5694 91.1631 11.3291 92.4246 12.8486C93.7147 14.3394 94.3598 16.4753 94.3598 19.2563V33.4478H89.6723V19.8583C89.6723 16.3606 88.2675 14.6118 85.4578 14.6118C84.8558 14.6118 84.2537 14.6978 83.6516 14.8698C83.0783 15.0132 82.5622 15.2425 82.1035 15.5579C81.6448 15.8732 81.2721 16.2746 80.9854 16.762C80.7273 17.2494 80.5983 17.8228 80.5983 18.4822V33.4478H75.9108ZM114.661 33.4478C113.428 33.4478 112.482 33.1037 111.823 32.4157C111.164 31.6989 110.762 30.7958 110.619 29.7064H110.404C109.974 31.1112 109.185 32.172 108.039 32.8887C106.892 33.6054 105.501 33.9638 103.867 33.9638C101.545 33.9638 99.753 33.3618 98.4916 32.1576C97.2588 30.9535 96.6424 29.3337 96.6424 27.2981C96.6424 25.0619 97.4451 23.3847 99.0506 22.2666C100.685 21.1485 103.064 20.5894 106.189 20.5894H110.232V18.6972C110.232 17.3211 109.859 16.2603 109.114 15.5149C108.368 14.7695 107.207 14.3968 105.63 14.3968C104.311 14.3968 103.236 14.6835 102.405 15.2568C101.574 15.8302 100.871 16.5613 100.298 17.4501L97.5024 14.9128C98.2479 13.6513 99.2943 12.6192 100.642 11.8165C101.989 10.9851 103.752 10.5694 105.931 10.5694C108.827 10.5694 111.049 11.2431 112.597 12.5906C114.145 13.938 114.919 15.8732 114.919 18.3962V29.6204H117.285V33.4478H114.661ZM105.2 30.3944C106.662 30.3944 107.867 30.0791 108.813 29.4483C109.759 28.7889 110.232 27.9145 110.232 26.8251V23.5997H106.275C103.036 23.5997 101.416 24.6032 101.416 26.61V27.3841C101.416 28.3876 101.746 29.1473 102.405 29.6634C103.093 30.1507 104.025 30.3944 105.2 30.3944ZM119.298 33.4478V11.0854H123.986V14.7838H124.201C124.688 13.5797 125.419 12.5762 126.394 11.7735C127.397 10.9707 128.759 10.5694 130.479 10.5694C132.773 10.5694 134.55 11.3291 135.812 12.8486C137.102 14.3394 137.747 16.4753 137.747 19.2563V33.4478H133.06V19.8583C133.06 16.3606 131.655 14.6118 128.845 14.6118C128.243 14.6118 127.641 14.6978 127.039 14.8698C126.466 15.0132 125.949 15.2425 125.491 15.5579C125.032 15.8732 124.659 16.2746 124.373 16.762C124.115 17.2494 123.986 17.8228 123.986 18.4822V33.4478H119.298ZM150.308 10.5694C152.544 10.5694 154.379 11.0711 155.813 12.0745C157.246 13.0779 158.292 14.4111 158.952 16.0739L155.081 17.8801C154.766 16.848 154.207 16.0309 153.404 15.4289C152.63 14.7981 151.598 14.4828 150.308 14.4828C148.588 14.4828 147.283 15.0275 146.395 16.1169C145.534 17.1777 145.104 18.5682 145.104 20.2884V24.2878C145.104 26.008 145.534 27.4128 146.395 28.5022C147.283 29.563 148.588 30.0934 150.308 30.0934C151.684 30.0934 152.774 29.7637 153.576 29.1043C154.408 28.4162 155.067 27.5131 155.554 26.395L159.124 28.2872C158.436 30.0074 157.404 31.3549 156.028 32.3296C154.68 33.2757 153.017 33.8205 151.039 33.9638L150.652 35.942L150.781 36.114C151.096 36.028 151.397 35.9564 151.684 35.899C151.999 35.8417 152.315 35.813 152.63 35.813C153.462 35.813 154.164 36.0424 154.737 36.5011C155.339 36.9885 155.64 37.7339 155.64 38.7373C155.64 39.3967 155.497 39.9558 155.21 40.4145C154.924 40.8732 154.537 41.2459 154.049 41.5326C153.591 41.848 153.046 42.0773 152.415 42.2207C151.813 42.364 151.168 42.4357 150.48 42.4357C149.19 42.4357 148.158 42.235 147.384 41.8336C146.638 41.4323 146.093 41.0309 145.749 40.6295L147.556 38.5653C147.814 38.9093 148.158 39.196 148.588 39.4254C149.046 39.6834 149.606 39.8124 150.265 39.8124C150.81 39.8124 151.254 39.7121 151.598 39.5114C151.971 39.3107 152.157 38.9953 152.157 38.5653C152.157 38.2213 151.956 37.8772 151.555 37.5332C151.154 37.2178 150.337 36.9885 149.104 36.8451L148.029 36.7161L148.588 33.8348C145.893 33.4621 143.814 32.258 142.352 30.2224C140.89 28.1869 140.159 25.5349 140.159 22.2666C140.159 20.4891 140.388 18.8836 140.847 17.4501C141.306 15.9879 141.965 14.7551 142.825 13.7517C143.685 12.7196 144.746 11.9312 146.007 11.3864C147.269 10.8417 148.702 10.5694 150.308 10.5694ZM177.391 33.4478C176.158 33.4478 175.212 33.1037 174.553 32.4157C173.894 31.6989 173.492 30.7958 173.349 29.7064H173.134C172.704 31.1112 171.915 32.172 170.769 32.8887C169.622 33.6054 168.231 33.9638 166.597 33.9638C164.275 33.9638 162.483 33.3618 161.222 32.1576C159.989 30.9535 159.372 29.3337 159.372 27.2981C159.372 25.0619 160.175 23.3847 161.781 22.2666C163.415 21.1485 165.794 20.5894 168.919 20.5894H172.962V18.6972C172.962 17.3211 172.589 16.2603 171.844 15.5149C171.098 14.7695 169.937 14.3968 168.36 14.3968C167.041 14.3968 165.966 14.6835 165.135 15.2568C164.304 15.8302 163.601 16.5613 163.028 17.4501L160.232 14.9128C160.978 13.6513 162.024 12.6192 163.372 11.8165C164.719 10.9851 166.482 10.5694 168.661 10.5694C171.557 10.5694 173.779 11.2431 175.327 12.5906C176.875 13.938 177.649 15.8732 177.649 18.3962V29.6204H180.015V33.4478H177.391ZM167.93 30.3944C169.392 30.3944 170.597 30.0791 171.543 29.4483C172.489 28.7889 172.962 27.9145 172.962 26.8251V23.5997H169.005C165.766 23.5997 164.146 24.6032 164.146 26.61V27.3841C164.146 28.3876 164.476 29.1473 165.135 29.6634C165.823 30.1507 166.755 30.3944 167.93 30.3944ZM189.123 33.9638C187.002 33.9638 185.224 33.5911 183.791 32.8457C182.357 32.1003 181.11 31.0682 180.049 29.7494L183.059 26.9971C183.891 28.0005 184.808 28.7889 185.812 29.3623C186.844 29.9071 188.034 30.1794 189.381 30.1794C190.757 30.1794 191.775 29.9214 192.434 29.4053C193.123 28.8606 193.467 28.1152 193.467 27.1691C193.467 26.4524 193.223 25.8503 192.735 25.3629C192.277 24.8469 191.46 24.5172 190.284 24.3738L188.22 24.1158C185.926 23.8291 184.12 23.1697 182.801 22.1376C181.511 21.0768 180.866 19.5143 180.866 17.4501C180.866 16.3606 181.067 15.4002 181.468 14.5688C181.87 13.7087 182.429 12.9919 183.145 12.4185C183.891 11.8165 184.765 11.3578 185.769 11.0424C186.801 10.727 187.933 10.5694 189.166 10.5694C191.173 10.5694 192.807 10.8847 194.069 11.5155C195.359 12.1462 196.506 13.0206 197.509 14.1387L194.628 16.891C194.054 16.2029 193.295 15.6152 192.348 15.1278C191.431 14.6118 190.37 14.3538 189.166 14.3538C187.876 14.3538 186.916 14.6118 186.285 15.1278C185.683 15.6439 185.382 16.3176 185.382 17.149C185.382 18.0091 185.654 18.6542 186.199 19.0842C186.744 19.5143 187.618 19.8297 188.822 20.0303L190.886 20.2884C193.352 20.6611 195.144 21.3922 196.262 22.4816C197.409 23.5424 197.982 24.9759 197.982 26.7821C197.982 27.8715 197.767 28.8606 197.337 29.7494C196.936 30.6095 196.348 31.3549 195.574 31.9856C194.8 32.6163 193.868 33.1037 192.778 33.4478C191.689 33.7918 190.471 33.9638 189.123 33.9638ZM230.514 28.8893H230.342C230.026 30.3514 229.166 31.5699 227.761 32.5447C226.385 33.4908 224.55 33.9638 222.257 33.9638C220.479 33.9638 218.831 33.6341 217.311 32.9747C215.792 32.2866 214.473 31.2975 213.355 30.0074C212.266 28.6886 211.405 27.0688 210.775 25.1479C210.173 23.1983 209.872 20.9621 209.872 18.4392C209.872 15.9449 210.187 13.7374 210.818 11.8165C211.448 9.86695 212.337 8.23277 213.484 6.91397C214.631 5.59516 216.007 4.60606 217.612 3.94665C219.218 3.25858 221.01 2.91455 222.988 2.91455C225.683 2.91455 227.962 3.51661 229.826 4.72074C231.689 5.89619 233.137 7.5447 234.169 9.66626L230.213 11.9885C229.639 10.5837 228.751 9.45123 227.546 8.59114C226.342 7.70238 224.823 7.258 222.988 7.258C220.608 7.258 218.688 8.01775 217.225 9.53724C215.792 11.0567 215.075 13.207 215.075 15.9879V20.8904C215.075 23.6714 215.792 25.8216 217.225 27.3411C218.688 28.8606 220.608 29.6204 222.988 29.6204C223.934 29.6204 224.837 29.5057 225.697 29.2763C226.557 29.0183 227.303 28.6599 227.934 28.2012C228.593 27.7138 229.109 27.1261 229.482 26.438C229.883 25.7213 230.084 24.8899 230.084 23.9438V21.6215H223.891V17.4501H234.771V33.4478H230.514V28.8893ZM238.946 3.4306H252.235C254.729 3.4306 256.678 4.13301 258.083 5.53782C259.517 6.94264 260.233 8.8205 260.233 11.1714C260.233 12.2895 260.076 13.25 259.76 14.0527C259.445 14.8268 259.044 15.4719 258.556 15.9879C258.069 16.4753 257.51 16.848 256.879 17.106C256.248 17.3354 255.632 17.4787 255.03 17.5361V17.7941C255.632 17.8228 256.291 17.9661 257.008 18.2242C257.754 18.4822 258.442 18.8979 259.072 19.4713C259.703 20.016 260.233 20.7328 260.664 21.6215C261.094 22.4816 261.309 23.5424 261.309 24.8039C261.309 26.008 261.108 27.1404 260.707 28.2012C260.334 29.262 259.803 30.1794 259.115 30.9535C258.427 31.7276 257.61 32.344 256.664 32.8027C255.718 33.2327 254.686 33.4478 253.568 33.4478H238.946V3.4306ZM243.806 29.2763H252.149C253.41 29.2763 254.399 28.9466 255.116 28.2872C255.833 27.6278 256.191 26.6817 256.191 25.4489V23.9868C256.191 22.754 255.833 21.8079 255.116 21.1485C254.399 20.4891 253.41 20.1594 252.149 20.1594H243.806V29.2763ZM243.806 16.1169H251.332C252.536 16.1169 253.467 15.8159 254.127 15.2138C254.786 14.5831 255.116 13.6943 255.116 12.5476V11.1714C255.116 10.0246 254.786 9.1502 254.127 8.54814C253.467 7.91741 252.536 7.60204 251.332 7.60204H243.806V16.1169Z" fill="#011E38"/>
</svg>
