<svg width="215" height="48" viewBox="0 0 215 48" fill="none" xmlns="http://www.w3.org/2000/svg">
<g clip-path="url(#clip0_5_120)">
<path fill-rule="evenodd" clip-rule="evenodd" d="M197.327 23.7853C199.073 21.6356 201.383 20.9698 203.566 21.3979C204.473 20.6458 205.548 19.786 206.864 18.7412C206.955 18.6705 207.042 18.5983 207.132 18.5263L207.126 18.5238C202.792 16.5013 198.249 17.594 195.648 20.3912C195.532 20.5225 195.414 20.6526 195.302 20.7902C195.174 20.9432 195.036 21.1074 194.892 21.2584C195.048 21.4411 196.009 22.5406 197.287 23.836C197.3 23.8191 197.316 23.8004 197.327 23.7853Z" fill="#0F73AB"/>
<path fill-rule="evenodd" clip-rule="evenodd" d="M194.906 21.2492C194.887 21.2705 194.919 21.2345 194.903 21.2558C191.556 17.0535 187.897 10.2095 193.35 4.24744C189.26 7.69976 185.842 13.4517 184.757 18.6234C182.296 30.3296 188.325 37.0704 193.667 40.3704C188.274 35.8529 189.843 27.427 194.906 21.2492Z" fill="#8CC740"/>
<path fill-rule="evenodd" clip-rule="evenodd" d="M194.903 21.2558L194.855 21.3143C194.871 21.2911 194.887 21.2705 194.906 21.2492C200.317 14.8155 209.884 7.42051 206.943 3.18946C205.059 0.488331 200.872 0.355416 198.401 1.14352C198.31 1.18136 198.214 1.22014 198.121 1.26267C196.361 2.04483 194.754 3.01902 193.35 4.24714C187.897 10.2095 191.556 17.0532 194.903 21.2558Z" fill="#D6DE24"/>
<path fill-rule="evenodd" clip-rule="evenodd" d="M207.132 18.5262C207.042 18.5982 206.955 18.6704 206.865 18.7411C205.548 19.786 204.473 20.6457 203.566 21.3981C215.445 23.6977 213.983 41.7653 200.898 42.3823C199.186 42.4664 197.459 42.1055 196.39 41.739C196.541 41.7984 196.765 41.8775 196.899 41.9245C204.793 44.5755 211.989 40.5703 213.792 33.7917C215.482 27.4377 213.067 21.3037 207.132 18.5262Z" fill="#F25921"/>
<path fill-rule="evenodd" clip-rule="evenodd" d="M198.401 1.1438C200.872 0.35538 205.06 0.488294 206.943 3.18974C209.755 7.22939 201.138 14.1641 195.648 20.3913C198.249 17.5942 202.792 16.5012 207.123 18.5237C207.123 18.5237 207.126 18.5237 207.132 18.5262C222.837 5.91651 209.02 -3.33025 198.401 1.1438Z" fill="#3D9CD6"/>
<path fill-rule="evenodd" clip-rule="evenodd" d="M194.931 31.0541C194.925 31.0451 194.919 31.0357 194.919 31.0357C192.805 27.2659 193.176 23.7733 194.927 21.2748C194.938 21.2892 194.955 21.3079 194.975 21.3308C194.938 21.2848 194.911 21.256 194.906 21.2535L194.903 21.256C194.903 21.256 194.906 21.2535 194.906 21.2491L194.903 21.2535L194.9 21.256C189.846 27.427 188.278 35.8375 193.654 40.3588C193.728 40.4057 193.804 40.4557 193.878 40.5067C194.28 40.7466 195.123 41.2313 195.988 41.5803L195.991 41.5831C191.585 39.7696 192.916 34.6078 194.931 31.0541Z" fill="#3D9CD6"/>
<path fill-rule="evenodd" clip-rule="evenodd" d="M204.968 30.2313C205.17 29.6093 205.298 28.6986 205.272 28.1622C205.32 28.8109 204.718 31.6558 202.249 32.4124C199.61 33.2224 196.871 31.2784 196.324 28.8409C195.802 29.6562 195.274 30.4727 194.931 31.0541C197.501 34.5424 203.293 35.0994 204.968 30.2313Z" fill="#F25921"/>
<path fill-rule="evenodd" clip-rule="evenodd" d="M196.323 28.8426C195.898 27.1394 196.194 25.2135 197.287 23.8359C196.054 22.5887 195.129 21.5213 194.925 21.2821C193.177 23.7781 192.805 27.2711 194.917 31.0311C194.917 31.0311 194.925 31.0449 194.931 31.054C195.275 30.4729 195.802 29.6585 196.323 28.8426Z" fill="#0F73AB"/>
<path fill-rule="evenodd" clip-rule="evenodd" d="M204.716 21.6784C204.63 21.6571 204.543 21.6315 204.454 21.6065C204.388 21.5896 204.319 21.5683 204.249 21.5521C204.174 21.5283 204.096 21.5117 204.023 21.4951C203.872 21.4623 203.722 21.4263 203.566 21.3982L203.503 21.422C203.503 21.422 201.394 23.1298 199.516 25.0685C200.37 24.3933 201.513 24.1121 202.64 24.4183C203.625 24.6816 204.394 25.3325 204.844 26.16C204.874 26.2122 204.898 26.2654 204.922 26.3148C204.937 26.347 204.956 26.3751 204.969 26.4061C205.001 26.4796 205.028 26.5531 205.059 26.6269C205.228 27.0947 205.308 27.5986 205.276 28.1143C205.276 28.1721 205.276 28.2322 205.272 28.2916C205.276 28.8383 205.153 29.6564 204.969 30.2315C203.293 35.0996 197.501 34.5426 194.931 31.054C192.916 34.608 191.585 39.7697 195.997 41.5864C196.088 41.6262 196.24 41.6787 196.428 41.7484C197.501 42.1106 199.206 42.464 200.898 42.3824C213.546 41.7863 215.333 24.8921 204.716 21.6784Z" fill="#F58221"/>
<path fill-rule="evenodd" clip-rule="evenodd" d="M199.526 25.059C200.599 23.9578 201.747 22.9058 203.566 21.398C201.383 20.9699 199.072 21.6357 197.326 23.7855C197.316 23.8005 197.3 23.8193 197.287 23.8362C197.821 24.3759 198.416 24.9536 199.04 25.5168C199.189 25.3501 199.352 25.195 199.526 25.059Z" fill="#F25921"/>
<path fill-rule="evenodd" clip-rule="evenodd" d="M199.046 25.5166C198.411 24.9499 197.812 24.3663 197.277 23.8215L197.285 23.8334C196.179 25.1995 195.898 27.1391 196.323 28.8426C197 27.8962 198.158 26.4579 198.866 25.7389C198.921 25.6573 198.981 25.5873 199.046 25.5166Z" fill="#F25921"/>
<path fill-rule="evenodd" clip-rule="evenodd" d="M205.28 27.8528C205.284 28.1671 205.245 28.4867 205.164 28.8036H205.16V28.8107C204.652 30.716 202.704 31.8506 200.806 31.3405H200.803H200.799C198.898 30.8289 197.77 28.8617 198.277 26.9537C198.395 26.4999 198.6 26.0962 198.862 25.7412C198.156 26.4605 196.999 27.8966 196.323 28.8426V28.8408L196.319 28.8426L196.323 28.8451L196.324 28.8408C196.871 31.2783 199.61 33.2226 202.249 32.4123C204.591 31.6936 205.249 29.1069 205.272 28.2844C205.276 28.4724 205.262 28.6938 205.233 28.9349C205.306 28.4395 205.298 28.0527 205.28 27.8528Z" fill="#F58221"/>
<path fill-rule="evenodd" clip-rule="evenodd" d="M48.1468 27.9758C52.6466 27.9758 54.9934 30.2069 54.9934 34.3384V36.2392C54.9934 40.4529 52.426 42.6012 48.4228 42.6012C47.3461 42.6012 46.3799 42.4361 45.5239 42.1332V47.559C45.5239 47.8345 45.3583 48 45.0823 48H42.6253C42.3492 48 42.1837 47.8345 42.1837 47.559V29.7117C42.1837 29.4634 42.2938 29.2982 42.5148 29.2155C44.5026 28.3892 46.435 27.9758 48.1468 27.9758ZM168.373 27.976C172.321 27.976 174.916 30.1518 174.916 34.4489V36.2116C174.916 40.5084 172.266 42.6839 168.373 42.6839C164.426 42.6839 161.831 40.5084 161.831 36.2116V34.4489C161.831 30.1518 164.481 27.976 168.373 27.976ZM8.30991 23.7068C10.3528 23.7068 12.2577 24.4231 13.6934 25.8552C13.8038 25.9654 13.8589 26.0756 13.8589 26.2133C13.8589 26.3236 13.8038 26.4338 13.6934 26.5712L12.7547 27.6732C12.6442 27.8109 12.5062 27.8661 12.3957 27.8661C12.2852 27.8661 12.175 27.8383 12.0645 27.7556C10.8495 26.792 9.6902 26.2958 8.17157 26.2958C5.02444 26.2958 3.39564 27.9211 3.39564 31.5839V34.8068C3.39564 38.3601 5.02444 40.0953 7.78534 40.0953C10.1597 40.0953 11.6226 39.1585 11.6226 36.6794V35.027H8.58597C8.25483 35.027 8.0614 34.834 8.0614 34.5039V32.9888C8.0614 32.6584 8.25483 32.4655 8.58597 32.4655H14.356C14.6871 32.4655 14.8802 32.6584 14.8802 32.9888V36.2941C14.8802 40.4257 11.9816 42.684 7.75748 42.684C2.87106 42.684 0 39.847 0 34.3659V32.0801C0 26.5712 3.09204 23.7068 8.30991 23.7068ZM29.8155 28.3061C30.0919 28.3061 30.2575 28.4716 30.2575 28.7473V36.7897C30.2575 39.5445 31.2787 40.2327 33.1561 40.2327C34.2606 40.2327 35.2819 40.1499 35.972 39.9848V28.7473C35.972 28.4716 36.1376 28.3061 36.414 28.3061H38.871C39.147 28.3061 39.3126 28.4716 39.3126 28.7473V41.1417C39.3126 41.3893 39.2024 41.5548 38.9811 41.6373C37.4628 42.2159 34.9508 42.684 32.9354 42.684C28.8221 42.684 26.9169 40.5905 26.9169 36.7347V28.7473C26.9169 28.4716 27.0825 28.3061 27.3589 28.3061H29.8155ZM63.5235 27.976C67.4715 27.976 70.0666 30.1518 70.0666 34.4489V36.2116C70.0666 40.5084 67.4161 42.6839 63.5235 42.6839C59.5757 42.6839 56.9807 40.5084 56.9807 36.2116V34.4489C56.9807 30.1518 59.6311 27.976 63.5235 27.976ZM78.9004 23.7067C83.1245 23.7067 85.8575 25.6624 85.8575 28.4715V28.9402C85.8575 30.5375 84.9467 31.6391 83.7595 32.4104C85.4159 33.2367 86.7408 34.7518 86.7408 36.7624V37.2855C86.7408 40.5904 84.0356 42.6839 79.2043 42.6839C76.8853 42.6839 75.1457 42.519 73.2133 42.1608C72.9097 42.1056 72.7717 41.9129 72.7717 41.6375V24.6707C72.7717 24.3681 72.9097 24.2026 73.2133 24.1476C74.5388 23.8997 76.6365 23.7067 78.9004 23.7067ZM95.2711 27.976C99.2192 27.976 101.814 30.1518 101.814 34.4489V36.2116C101.814 40.5084 99.1638 42.6839 95.2711 42.6839C91.3234 42.6839 88.7284 40.5084 88.7284 36.2116V34.4489C88.7284 30.1518 91.3788 27.976 95.2711 27.976ZM107.087 24.3681C107.28 24.3681 107.391 24.533 107.391 24.7535V28.3064H111.394C111.67 28.3064 111.835 28.4716 111.835 28.7473V30.3171C111.835 30.5928 111.67 30.7577 111.394 30.7577H107.391V37.3405C107.391 39.6818 108.136 40.2327 109.792 40.2327C110.427 40.2327 110.814 40.1774 111.366 40.04C111.476 40.0125 111.559 39.9847 111.642 39.9847C111.808 39.9847 111.918 40.0953 111.918 40.3154V41.7749C111.918 42.0229 111.808 42.2433 111.532 42.3258C110.759 42.5737 109.847 42.6839 109.157 42.6839C105.79 42.6839 104.05 40.8937 104.05 37.451V25.4417C104.05 25.1666 104.188 25.0289 104.464 24.9736L106.701 24.4506C106.838 24.4231 107.004 24.3681 107.087 24.3681ZM126.715 27.976C128.151 27.976 129.503 28.4994 130.525 29.3256C130.663 29.4359 130.746 29.5732 130.746 29.7116C130.746 29.8212 130.691 29.9592 130.58 30.0969L129.779 31.0883C129.641 31.2539 129.531 31.336 129.393 31.336C129.31 31.336 129.199 31.2813 129.089 31.1986C128.482 30.7851 127.681 30.3998 126.66 30.3998C124.009 30.3998 123.292 31.9699 123.292 34.9167V35.7429C123.292 38.6629 124.12 40.2605 126.632 40.2605C127.792 40.2605 128.73 39.8195 129.476 39.3237C129.559 39.269 129.641 39.2412 129.724 39.2412C129.835 39.2412 129.917 39.3237 130.056 39.5166L130.856 40.6183C130.967 40.7563 130.994 40.8662 130.994 40.9487C130.994 41.0864 130.912 41.1966 130.801 41.2797C129.779 42.0507 128.123 42.6839 126.604 42.6839C122.326 42.6839 119.951 40.5356 119.951 35.881V34.724C119.951 30.1794 122.629 27.976 126.715 27.976ZM137.62 27.9761C141.568 27.9761 143.583 29.9314 143.583 34.063V41.0315C143.583 41.3069 143.473 41.5826 143.141 41.7197C141.512 42.4089 139.69 42.684 137.813 42.684C134.251 42.684 132.209 41.2797 132.209 38.6077V38.0294C132.209 35.4954 134.196 34.1732 137.813 34.1732H140.463V33.7876C140.463 31.5015 139.718 30.4273 137.564 30.4273C136.433 30.4273 135.384 30.7577 134.445 31.3085C134.334 31.3638 134.251 31.3913 134.169 31.3913C134.003 31.3913 133.865 31.3085 133.755 31.1711L132.982 30.1244C132.872 29.9867 132.844 29.8765 132.844 29.7663C132.844 29.6286 132.899 29.4905 133.037 29.4084C134.224 28.6093 135.798 27.9761 137.62 27.9761ZM158.904 28.3063C159.181 28.3063 159.346 28.4715 159.346 28.7475V41.9128C159.346 42.1879 159.181 42.3537 158.904 42.3537H156.448C156.171 42.3537 156.006 42.1879 156.006 41.9128V28.7475C156.006 28.4715 156.171 28.3063 156.448 28.3063H158.904ZM153.632 28.1411C153.88 28.1689 154.018 28.3894 154.018 28.6373V30.1246C154.018 30.3997 153.852 30.5099 153.549 30.5099H152.527C151.423 30.5099 150.402 30.6477 149.739 30.9231V41.9129C149.739 42.188 149.573 42.3538 149.297 42.3538H146.84C146.564 42.3538 146.398 42.188 146.398 41.9129V29.8489C146.398 29.6013 146.481 29.4358 146.702 29.3255C148.303 28.5268 150.319 28.0865 152.168 28.0865C152.638 28.0865 153.135 28.0865 153.632 28.1411ZM117.025 28.3063C117.301 28.3063 117.467 28.4715 117.467 28.7475V41.9128C117.467 42.1879 117.301 42.3537 117.025 42.3537H114.568C114.292 42.3537 114.127 42.1879 114.127 41.9128V28.7475C114.127 28.4715 114.292 28.3063 114.568 28.3063H117.025ZM24.6535 28.1411C24.9017 28.1689 25.04 28.3894 25.04 28.6373V30.1246C25.04 30.3997 24.8741 30.5099 24.5702 30.5099H23.5489C22.4447 30.5099 21.4234 30.6477 20.7605 30.9231V41.9129C20.7605 42.188 20.5949 42.3538 20.3189 42.3538H17.8619C17.5858 42.3538 17.4203 42.188 17.4203 41.9129V29.8489C17.4203 29.6013 17.5032 29.4358 17.7239 29.3255C19.3251 28.5268 21.3405 28.0865 23.1903 28.0865C23.6594 28.0865 24.1565 28.0865 24.6535 28.1411ZM140.463 36.2392H137.813C135.963 36.2392 135.218 36.8996 135.218 38.0568V38.4978C135.218 39.5167 135.963 40.3429 137.813 40.3429C138.945 40.3429 139.773 40.3154 140.463 39.9848V36.2392ZM168.373 30.3448C166.082 30.3448 165.171 31.612 165.171 34.5591V36.1011C165.171 39.1032 166.082 40.3154 168.373 40.3154C170.665 40.3154 171.576 39.0482 171.576 36.1011V34.5591C171.576 31.5567 170.665 30.3448 168.373 30.3448ZM63.5235 30.3448C61.2321 30.3448 60.3213 31.612 60.3213 34.5591V36.1011C60.3213 39.1032 61.2321 40.3154 63.5235 40.3154C65.8152 40.3154 66.726 39.0482 66.726 36.1011V34.5591C66.726 31.5567 65.8152 30.3448 63.5235 30.3448ZM95.2711 30.3448C92.98 30.3448 92.0689 31.612 92.0689 34.5591V36.1011C92.0689 39.1032 92.98 40.3154 95.2711 40.3154C97.5629 40.3154 98.4737 39.0482 98.4737 36.1011V34.5591C98.4737 31.5567 97.5629 30.3448 95.2711 30.3448ZM48.3123 30.3721C47.1252 30.3721 46.2144 30.5929 45.5239 30.813V39.8196C46.2144 40.0953 47.2081 40.2049 48.2294 40.2049C50.8523 40.2049 51.6529 38.9109 51.6529 36.0462V34.449C51.6529 31.5565 50.7142 30.3721 48.3123 30.3721ZM80.0875 34.1457H75.8913V39.9297C76.8578 40.0399 78.0171 40.0952 79.5908 40.0952C82.1029 40.0952 83.456 39.1031 83.456 37.1755V36.8449C83.456 35.1649 82.158 34.1457 80.0875 34.1457ZM79.1767 26.296C77.9896 26.296 76.7473 26.3506 75.8913 26.4612V31.6941H79.6735C81.5783 31.6941 82.7379 30.7304 82.7379 29.1326V28.8022C82.7379 27.2321 81.3849 26.296 79.1767 26.296ZM115.81 22.6602C116.942 22.6602 117.66 23.2938 117.66 24.3952V24.7533C117.66 25.855 116.942 26.4886 115.81 26.4886C114.678 26.4886 113.933 25.855 113.933 24.7533V24.3952C113.933 23.2938 114.678 22.6602 115.81 22.6602ZM157.69 22.6602C158.822 22.6602 159.539 23.2938 159.539 24.3952V24.7533C159.539 25.855 158.822 26.4886 157.69 26.4886C156.558 26.4886 155.812 25.855 155.812 24.7533V24.3952C155.812 23.2938 156.558 22.6602 157.69 22.6602ZM141.789 22.9083V24.7532C141.789 25.0014 141.651 25.3047 141.374 25.3593L135.411 26.4338C135.108 26.4887 134.942 26.3236 134.942 26.0204V25.0014C134.942 24.726 135.135 24.533 135.411 24.4503L141.347 22.6051C141.595 22.5227 141.789 22.6326 141.789 22.9083Z" fill="white"/>
</g>
<defs>
<clipPath id="clip0_5_120">
<rect width="215" height="48" fill="white"/>
</clipPath>
</defs>
</svg>
